<?xml version="1.0" encoding="UTF-8" standalone="no"?>
<svg xmlns:xlink="http://www.w3.org/1999/xlink" xmlns:sketch="http://www.bohemiancoding.com/sketch/ns" width="72px" height="72px" viewBox="0 0 72 72" version="1.1" xmlns="http://www.w3.org/2000/svg">
    <!-- Generator: Sketch 3.4.4 (17249) - http://www.bohemiancoding.com/sketch -->
    <title>feedback-icon</title>
    <desc>Created with Sketch.</desc>
    <defs></defs>
    <g id="Components" stroke="none" stroke-width="1" fill="none" fill-rule="evenodd" sketch:type="MSPage">
        <path d="M66.8274262,21.5959866 L40.2032577,21.5959866 C45.3859379,17.749113 50.6465532,13.3816333 50.5078288,9.38668313 C50.4719787,8.34079489 50.0277489,6.83976601 48.1167817,5.62865548 C47.2906703,5.10337331 46.4411784,4.83683547 45.5948038,4.83683547 C40.8438838,4.83683547 37.9727569,13.1618565 36.6151285,18.5175525 C34.2116118,12.5789024 29.0866036,2 23.0949577,2 C21.9758105,2 20.8878373,2.35850119 19.8668883,3.06926875 C17.3963475,4.78695704 16.518799,7.28243704 17.3994649,10.0943333 C18.7415063,14.3745257 24.0613522,18.9617822 29.2596194,21.5959866 L6.16902561,21.5959866 C5.52216477,21.5959866 5,22.11971 5,22.7650122 L5,34.7420692 C5,35.3873713 5.52216477,35.9110948 6.16902561,35.9110948 L26.1422178,35.9110948 C26.7875199,35.9110948 27.3112434,35.3873713 27.3112434,34.7420692 C27.3112434,34.096767 26.7875199,33.5730436 26.1422178,33.5730436 L7.33805121,33.5730436 L7.33805121,23.9340378 L29.8737475,23.9340378 L29.8737475,68.38195 L11.7694376,68.38195 L11.7694376,37.9296123 C11.7694376,37.2843102 11.2457141,36.7605867 10.600412,36.7605867 C9.95355117,36.7605867 9.4298277,37.2843102 9.4298277,37.9296123 L9.4298277,69.5509756 C9.4298277,70.1962777 9.95355117,70.7200012 10.600412,70.7200012 L62.3944812,70.7200012 C63.0397833,70.7200012 63.5635068,70.1962777 63.5635068,69.5509756 L63.5635068,37.9296123 C63.5635068,37.2843102 63.0397833,36.7605867 62.3944812,36.7605867 C61.749179,36.7605867 61.2254555,37.2843102 61.2254555,37.9296123 L61.2254555,68.38195 L43.1227044,68.38195 L43.1227044,23.9340378 L65.6584006,23.9340378 L65.6584006,33.5730436 L46.8557928,33.5730436 C46.2104907,33.5730436 45.6867672,34.096767 45.6867672,34.7420692 C45.6867672,35.3873713 46.2104907,35.9110948 46.8557928,35.9110948 L66.8274262,35.9110948 C67.4711697,35.9110948 67.9964519,35.3873713 67.9964519,34.7420692 L67.9964519,22.7650122 C67.9964519,22.11971 67.4711697,21.5959866 66.8274262,21.5959866 L66.8274262,21.5959866 Z M45.5948038,7.17488668 C45.9969487,7.17488668 46.4115631,7.31361105 46.865145,7.6019707 C48.0045553,8.32364918 48.1557493,9.01259493 48.1713363,9.46773557 C48.2773279,12.560198 41.978618,17.3797009 38.7115811,19.7941284 C40.1814359,13.8087173 42.8530491,7.17488668 45.5948038,7.17488668 L45.5948038,7.17488668 Z M19.6315245,9.39447663 C19.0485704,7.53962267 19.5489133,6.13835065 21.2011362,4.99114685 C21.83241,4.55159322 22.4527729,4.33805121 23.0949577,4.33805121 C27.4063241,4.33805121 32.528215,14.1391619 35.1998282,21.3185378 C29.8269865,20.3256454 21.1980188,14.3963475 19.6315245,9.39447663 L19.6315245,9.39447663 Z M32.2117987,23.9340378 L40.7846531,23.9340378 L40.7846531,68.38195 L32.2117987,68.38195 L32.2117987,23.9340378 Z" id="Fill-44" fill="#FFFFFF" sketch:type="MSShapeGroup"></path>
    </g>
</svg>